<?xml version="1.0" encoding="UTF-8"?>
<svg version="1.1" viewBox="0 0 4096 4096" xmlns="http://www.w3.org/2000/svg">
  <title>Chess Black Bishop</title>

  <path d="m2048 3456.3q-30.762 125.24-74.707 173.58t-116.46 101.07q-79.102 54.932-186.77 92.285-107.67 39.551-239.5 19.775l-617.43-85.693q-37.354-4.3945-68.115 0-28.564 4.3946-54.932 4.3946-46.143 0-118.65 19.775-70.312 21.973-109.86 61.523l-213.13-349.37q39.551-43.945 70.312-61.524t72.51-37.354q127.44-59.326 272.46-72.51 61.523-4.3945 120.85-2.1972 59.326 2.1972 123.05-4.3946 118.65 19.775 237.3 37.354 120.85 15.381 241.7 32.959 131.84 0 177.98-26.367 24.17-13.184 76.904-48.34t105.47-103.27q-116.46-13.184-237.3-43.945-120.85-32.959-213.13-68.115l228.52-566.89q-171.39-98.877-239.5-158.2-68.115-61.523-107.67-140.62-57.129-101.07-74.707-195.56-15.381-94.482-13.184-169.19 2.1973-131.84 61.523-290.04 61.524-160.4 228.52-285.64 138.43-105.47 270.26-217.53 131.84-112.06 261.47-261.47-162.6-83.496-162.6-265.87 0-123.05 85.693-210.94 87.891-87.891 213.13-87.891 123.05 0 210.94 87.891 87.891 87.891 87.891 210.94 0 180.18-162.6 265.87 127.44 149.41 257.08 261.47 131.84 112.06 274.66 217.53 164.79 125.24 224.12 285.64 59.326 158.2 63.721 290.04 0 74.707-15.381 169.19-15.381 94.482-70.312 195.56-43.945 79.102-112.06 140.62-65.918 59.326-235.11 158.2l228.52 566.89q-96.68 35.156-217.53 68.115-120.85 30.762-232.91 43.945 50.537 68.115 103.27 103.27 52.734 35.156 79.102 48.34 46.143 26.367 177.98 26.367 118.65-17.578 237.3-32.959 120.85-17.578 241.7-37.354 59.326 6.5918 118.65 4.3946 61.523-2.1973 125.24 2.1972 140.62 13.184 272.46 72.51 39.551 19.775 70.312 37.354 32.959 17.578 72.51 61.524l-215.33 349.37q-39.551-39.551-112.06-61.523-70.312-19.775-114.26-19.775-28.564 0-59.326-4.3946-28.564-4.3945-65.918 0l-615.23 85.693q-131.84 19.775-246.09-17.578-112.06-37.354-184.57-98.877-72.51-59.326-116.46-103.27-41.748-41.748-70.312-166.99z"/>
  <path d="m1966.7 1821.5v186.77q0 81.299 81.299 81.299t81.299-81.299v-188.96h197.75q76.904 0 76.904-79.102t-76.904-79.102h-197.75v-197.75q0-81.299-81.299-81.299t-81.299 81.299v197.75h-193.36q-76.904 0-76.904 79.102t76.904 79.102z" fill="#fff"/>
  <path d="m1918.4 3416.7q50.537-107.67 50.537-208.74h-70.312q-85.693 140.62-177.98 208.74z" fill="#fff"/>
  <path d="m2371 3416.7q-87.891-65.918-175.78-208.74h-70.312q0 107.67 50.537 208.74z" fill="#fff"/>
  <path d="m2447.9 2586.2-63.721-153.81v-59.326q-166.99-24.17-336.18-24.17-164.79 0-333.98 24.17l-2.1972 59.326-59.326 153.81q186.77-32.959 395.51-32.959 210.94 0 399.9 32.959z" fill="#fff"/>
  <path d="m2632.5 3038.8-92.285-224.12q-224.12-48.34-492.19-48.34-265.87 0-487.79 48.34l-92.285 221.92q272.46-68.115 580.08-68.115 303.22 0 584.47 70.312z" fill="#fff"/>
</svg>
