<?xml version="1.0" encoding="UTF-8"?>
<svg version="1.1" viewBox="0 0 4096 4096" xmlns="http://www.w3.org/2000/svg">
  <title>Chess Black King</title>

  <path d="m815.83 3151.1-72.51-410.89q-2.1973 0-6.5918-8.789-10.986-15.381-63.721-39.551-50.537-26.367-118.65-87.891-96.68-81.299-151.61-131.84-52.734-50.537-96.68-109.86-134.03-184.57-149.41-446.04-21.973-252.69 204.35-503.17 228.52-250.49 617.43-235.11 145.02 8.789 340.58 70.312 63.721 26.367 129.64 52.734 68.115 24.17 134.03 50.537 35.156 17.578 61.523 35.156-10.986-46.143-10.986-92.285 0-171.39 120.85-292.24 123.05-120.85 294.43-123.05 171.39 0 292.24 123.05 120.85 120.85 120.85 290.04 0 35.156-8.789 92.285 30.762-19.775 59.326-32.959 101.07-43.945 265.87-103.27 188.96-63.721 340.58-72.51 388.92-17.578 615.23 235.11 221.92 250.49 206.54 503.17-17.578 261.47-151.61 446.04-43.945 59.326-98.877 112.06-54.932 50.537-147.22 129.64-72.51 61.523-123.05 87.891-50.537 24.17-59.326 39.551-2.1973 4.3945-4.3946 6.5918-2.1972 2.1973-2.1972 4.3945l-70.312 413.09 145.02 542.72q-109.86 98.877-492.19 162.6t-883.3 63.721q-509.77 0-896.48-68.115-386.72-65.918-485.6-166.99z"/>
  <path d="m2048.5 2015.1q15.381-61.524 26.367-85.693 21.973-85.693 50.537-145.02 13.184-37.354 37.354-85.693 26.367-50.537 54.932-114.26 17.578-37.354 37.354-90.088 19.775-54.932 39.551-107.67 17.578-43.945 17.578-94.482 0-107.67-76.904-182.37-76.904-76.904-186.77-76.904-261.47 0-261.47 261.47 0 50.537 17.578 94.482 48.34 142.82 74.707 197.75 28.564 63.721 52.734 114.26 24.17 48.34 41.748 85.693 28.564 72.51 48.34 145.02 4.3945 13.184 26.367 83.496z" fill="#fff"/>
  <path d="m2048.5 1639.3q-4.3945-21.973-10.986-37.354-13.184-43.945-21.973-63.721-6.5918-15.381-17.578-37.354-10.986-24.17-21.973-50.537-6.5918-15.381-17.578-39.551-8.7891-26.367-15.381-48.34-6.5918-19.775-6.5918-41.748 0-116.46 112.06-116.46 116.46 0 116.46 114.26 0 28.564-8.7891 41.748-30.762 83.496-32.959 90.088-32.959 65.918-41.748 85.693-15.381 35.156-19.775 63.721-6.5918 13.184-8.7891 24.17-2.1972 8.7891-4.3945 15.381z"/>
  <path d="m1969.4 2566.6q0-87.891-4.3945-241.7-4.3945-156.01-32.959-259.28-90.088-294.43-272.46-474.61-94.482-92.285-290.04-171.39-224.12-87.891-424.07-87.891-347.17 0-514.16 248.29-94.482 131.84-94.482 329.59 0 215.33 105.47 353.76 54.932 79.102 210.94 195.56 156.01 116.46 263.67 215.33 191.16-41.748 430.66-72.51 241.7-30.762 621.83-35.156z" fill="#fff"/>
  <path d="m1802.4 2397.4q-274.66 4.3945-503.17 28.564-226.32 24.17-351.56 68.115-65.918-81.299-153.81-162.6-85.693-83.496-151.61-156.01-109.86-112.06-109.86-246.09 0-164.79 54.932-241.7 59.326-87.891 182.37-129.64 123.05-43.945 248.29-43.945 158.2 0 303.22 70.312 142.82 74.707 188.96 118.65 149.41 151.61 232.91 329.59 28.564 65.918 41.748 184.57 15.381 116.46 17.578 180.18z"/>
  <path d="m2125.4 872.49h-156.01v-287.84h-182.37q-74.707 0-74.707-72.51v-2.1973q0-72.51 74.707-72.51h182.37v-186.77q0-76.904 79.102-76.904 76.904 0 76.904 76.904v186.77h188.96q72.51 0 72.51 72.51v2.1973q0 72.51-72.51 72.51l-186.77 2.1973z"/>
  <path d="m3191 3605.9-65.918-259.28q-428.47-98.877-1076.7-98.877-641.6 0-1072.3 98.877l-70.312 261.47q417.48-127.44 1144.8-127.44 349.37 0 648.19 35.156 298.83 35.156 492.19 90.088z" fill="#fff"/>
  <path d="m3133.9 2948.9q-404.3-112.06-1076.7-112.06-676.76 0-1089.8 114.26l32.959 221.92q415.28-107.67 1056.9-107.67 639.4 0 1041.5 105.47z" fill="#fff"/>
  <path d="m2127.6 2568.8q377.93 6.5918 619.63 37.354 241.7 30.762 435.06 72.51 120.85-118.65 268.07-226.32t206.54-184.57q105.47-142.82 105.47-355.96 0-195.56-94.482-327.39-169.19-248.29-516.36-248.29-202.15 0-421.88 87.891-199.95 79.102-290.04 171.39-186.77 180.18-272.46 474.61-32.959 101.07-37.354 257.08-2.1972 156.01-2.1972 241.7z" fill="#fff"/>
  <path d="m2288 2397.4q0-63.721 13.184-180.18 15.381-118.65 46.143-184.57 81.299-177.98 232.91-329.59 43.945-43.945 188.96-118.65 142.82-70.312 305.42-70.312 123.05 0 243.9 43.945 123.05 41.748 184.57 129.64 54.932 74.707 54.932 241.7 0 131.84-107.67 246.09-70.312 72.51-151.61 147.22-81.299 72.51-156.01 171.39-127.44-43.945-355.96-68.115-226.32-24.17-498.78-28.564z"/>
</svg>
