<?xml version="1.0" encoding="UTF-8"?>
<svg version="1.1" viewBox="0 0 4096 4096" xmlns="http://www.w3.org/2000/svg">
  <title>Chess Black Knight</title>

  <path d="m2166.7 613.11q344.97 21.973 639.4 177.98 294.43 156.01 500.98 399.9 145.02 171.39 272.46 413.09 129.64 241.7 206.54 511.96 87.891 314.21 109.86 661.38 24.17 344.97 24.17 639.4v479t-342.77 0q-340.58 0-885.5 0h-1474.4q-19.775 0-19.775-107.67 2.1972-107.67 15.381-173.58 8.7891-52.734 41.748-149.41t109.86-235.11q35.156-70.312 166.99-204.35 131.84-136.23 303.22-314.21 98.877-101.07 153.81-254.88 57.129-153.81 48.34-279.05-81.299 65.918-177.98 107.67-465.82 166.99-674.56 483.4-15.381 19.775-98.877 177.98-43.945 83.496-74.707 114.26-41.748 41.748-120.85 46.143-123.05 6.5918-191.16-118.65-92.285 26.367-164.79 21.973-123.05-46.143-177.98-98.877-112.06-112.06-147.22-224.12-32.959-112.06-32.959-241.7 0-184.57 228.52-487.79 268.07-349.37 285.64-531.74 0-79.102 15.381-177.98 13.184-68.115 54.932-131.84 28.564-43.945 37.354-59.326 10.986-17.578 37.354-50.537 19.775-26.367 32.959-39.551 13.184-15.381 32.959-39.551 24.17-28.564 61.523-65.918-116.46-320.8-94.482-661.38 437.26 156.01 733.89 489.99 72.51-248.29 285.64-402.1 175.78 123.05 279.05 325.2z"/>
  <path d="m1237.2 1355.8q48.34-24.17 48.34-24.17 65.918-26.367 41.748-96.68-26.367-65.918-101.07-43.945-259.28 94.482-358.15 347.17-15.381 72.51 52.734 98.877 68.115 21.973 92.285-48.34 17.578-37.354 26.367-48.34 24.17 19.775 63.721 26.367 134.03 21.973 156.01-118.65 6.5918-48.34-21.973-92.285z" fill="#fff"/>
  <path d="m683.47 2450q63.721-43.945 13.184-105.47-52.734-50.537-116.46-8.789-134.03 87.891-142.82 230.71 2.1973 72.51 85.693 68.115 79.102-6.5918 76.904-81.299 17.578-70.312 83.496-103.27z" fill="#fff"/>
  <path d="m3654.2 3739.8q-2.1972 0 4.3946-120.85 6.5918-118.65 6.5918-257.08 2.1972-274.66 0-566.89-2.1973-294.43-79.102-586.67-74.707-281.25-164.79-479-90.088-199.95-195.56-344.97-158.2-237.3-430.66-402.1-272.46-164.79-569.09-215.33 8.789 50.537 4.3945 103.27-2.1973 52.734 2.1973 101.07 213.13 72.51 402.1 180.18 188.96 107.67 276.86 232.91 105.47 145.02 195.56 344.97 90.088 197.75 164.79 479 74.707 292.24 76.904 586.67 2.1973 292.24 2.1973 566.89 0 138.43-6.5918 257.08-6.5918 120.85 0 120.85z" fill="#fff"/>
  <path d="m1595.4 953.71q-10.986-79.102 4.3946-171.39-131.84 26.367-248.29 123.05-70.312 37.353-32.959 103.27 37.354 68.115 103.27 21.973 46.142-24.17 83.496-43.945 39.551-21.973 90.088-32.959z" fill="#fff"/>
  <path d="m2168.9 2026q153.81-202.15 151.61-450.44-8.7891-72.51-83.496-72.51-101.07 0-79.102 74.707 6.5918 120.85-24.17 199.95-50.537 125.24-112.06 186.77-32.959 65.918 39.551 96.68 70.312 32.959 107.67-35.156z" fill="#fff"/>
  <path d="m872.46 2841.2q8.789-19.775 28.564-59.326 37.354-92.285 37.354-109.86-4.3945-61.523-63.721-61.523-43.945 0-103.27 125.24-8.7891 17.578-26.367 30.762-59.326 61.524 17.578 103.27 70.312 41.748 109.86-28.564z" fill="#fff"/>
</svg>
