<?xml version="1.0" encoding="UTF-8"?>
<svg version="1.1" viewBox="0 0 4096 4096" xmlns="http://www.w3.org/2000/svg">
  <title>Chess Black Pawn</title>

  <path d="m2049.1 3846.5h-1186.5q-87.891-219.73-87.891-459.23 0-406.49 230.71-729.49 230.71-323 593.26-461.43-156.01-72.51-254.88-217.53-96.68-147.22-96.68-331.79 0-230.71 153.81-399.9 153.81-169.19 377.93-195.56-177.98-134.03-177.98-353.76 0-184.57 129.64-316.41 131.84-131.84 318.6-131.84 184.57 0 316.41 131.84 131.84 131.84 131.84 316.41 0 219.73-177.98 353.76 224.12 26.367 377.93 195.56 153.81 169.19 153.81 399.9 0 184.57-101.07 331.79-98.877 145.02-252.69 217.53 362.55 138.43 593.26 461.43 230.71 323 230.71 729.49 0 237.3-85.693 459.23z" dominant-baseline="central" aria-label="♟"/>
</svg>
