<?xml version="1.0" encoding="UTF-8"?>
<svg version="1.1" viewBox="0 0 4096 4096" xmlns="http://www.w3.org/2000/svg">
  <title>Chess Black Queen</title>

  <path d="m2045.9 767.01q-125.24 0-213.13-87.891-85.693-87.891-85.693-213.13 0-123.05 85.693-210.94 87.891-87.891 213.13-87.891 123.05 0 210.94 87.891 90.088 87.891 90.088 210.94 0 125.24-90.088 213.13-87.891 87.891-210.94 87.891z"/>
  <path d="m3399.4 3706.9q-107.67 94.482-483.4 158.2t-865.72 63.721q-498.78 0-876.71-65.918t-476.81-164.8l138.43-527.34-61.523-344.97-193.36-336.18-186.77-1366.7 107.67-41.748 602.05 1015.1 13.184-1208.5 149.41-26.367 459.23 1215.1 246.09-1307.4h151.61l246.09 1303 454.83-1210.7 151.61 26.367 13.184 1208.5 604.25-1017.3 103.27 48.34-182.37 1360.1-195.56 336.18-61.523 349.37z"/>
  <path d="m1123 876.8q-125.24 0-213.13-85.693-87.891-87.891-87.891-213.13 0-123.05 87.891-210.94 87.891-87.891 213.13-87.891 123.05 0 210.94 87.891 87.891 87.891 87.891 210.94 0 125.24-87.891 213.13-87.891 85.693-210.94 85.693z"/>
  <path d="m2968.7 876.8q-125.24 0-213.13-85.693-85.693-87.891-85.693-213.13 0-123.05 85.693-210.94 87.891-87.891 213.13-87.891 125.24 0 213.13 87.891 87.891 87.891 87.891 210.94 0 125.24-87.891 213.13-87.891 85.693-213.13 85.693z"/>
  <path d="m314.38 1118.5q-125.24 0-213.13-85.693-85.693-87.891-85.693-213.13 0-123.05 85.693-210.94 87.891-90.088 213.13-90.088t213.13 90.088q87.891 87.891 87.891 210.94 0 125.24-87.891 213.13-87.891 85.693-213.13 85.693z"/>
  <path d="m3781.7 1118.5q-125.24 0-213.13-85.693-87.891-87.891-87.891-213.13 0-123.05 87.891-210.94 87.891-90.088 213.13-90.088 123.05 0 210.94 90.088 87.891 87.891 87.891 210.94 0 125.24-87.891 213.13-87.891 85.693-210.94 85.693z"/>
  <path d="m3131.3 2979.6q-404.3-112.06-1076.7-112.06-676.76 0-1089.8 114.26l32.959 221.92q415.28-107.67 1056.9-107.67 639.4 0 1041.5 105.47z" fill="#fff"/>
  <path d="m3188.4 3636.6-65.918-259.28q-428.47-98.877-1076.7-98.877-641.6 0-1072.3 98.877l-70.312 261.47q417.48-127.44 1144.8-127.44 349.37 0 648.19 35.156 298.83 35.156 492.19 90.088z" fill="#fff"/>
  <path d="m3285.1 2586.3q-182.37-65.918-514.16-107.67-329.59-43.945-729.49-43.945-391.11 0-716.31 41.748-325.2 39.551-511.96 105.47l109.86 199.95q184.57-54.932 479-79.102t643.8-24.17 646 24.17 481.2 81.299z" fill="#fff"/>
</svg>
