<?xml version="1.0" encoding="UTF-8"?>
<svg version="1.1" viewBox="0 0 4096 4096" xmlns="http://www.w3.org/2000/svg">
  <title>Chess Black Rook</title>

  <path d="m2350.1 549.46h373.54v-301.03h602.05v823.97l-487.79 375.73v1050.3l373.54 373.54v450.44h336.18v525.15h-2999.3v-525.15h336.18v-450.44l375.73-373.54v-1050.3l-487.79-375.73v-823.97h599.85v301.03h375.73v-301.03h602.05z"/>
  <path d="m2049 2836.8h-909.67l-101.07 94.482v127.44h2021.5v-127.44l-101.07-94.482z" fill="#fff"/>
  <path d="m2049 2458.9h-637.21v101.07l-131.84 127.44h1538.1l-131.84-127.44v-101.07z" fill="#fff"/>
  <path d="m2049 1259.2h-769.04l131.84 103.27v125.24h1274.4v-125.24l131.84-103.27z" fill="#fff"/>
  <path d="m2049 887.86h-1125v101.07l160.4 120.85h1931.4l156.01-120.85v-101.07z" fill="#fff"/>
  <path d="m1038.3 3287.3v224.12h2021.5v-224.12z" fill="#fff"/>
</svg>
