<?xml version="1.0" encoding="UTF-8"?>
<svg version="1.1" viewBox="0 0 4096 4096" xmlns="http://www.w3.org/2000/svg">
  <title>Chess board – Black perspective</title>
  <rect x="3584" y="3584" width="512" height="512" fill="#edb"/>
  <rect x="3072" y="3584" width="512" height="512" fill="#b86"/>
  <rect x="2560" y="3584" width="512" height="512" fill="#edb"/>
  <rect x="2048" y="3584" width="512" height="512" fill="#b86"/>
  <rect x="1536" y="3584" width="512" height="512" fill="#edb"/>
  <rect x="1024" y="3584" width="512" height="512" fill="#b86"/>
  <rect x="512" y="3584" width="512" height="512" fill="#edb"/>
  <rect y="3584" width="512" height="512" fill="#b86"/>
  <rect x="3584" y="3072" width="512" height="512" fill="#b86"/>
  <rect x="3072" y="3072" width="512" height="512" fill="#edb"/>
  <rect x="2560" y="3072" width="512" height="512" fill="#b86"/>
  <rect x="2048" y="3072" width="512" height="512" fill="#edb"/>
  <rect x="1536" y="3072" width="512" height="512" fill="#b86"/>
  <rect x="1024" y="3072" width="512" height="512" fill="#edb"/>
  <rect x="512" y="3072" width="512" height="512" fill="#b86"/>
  <rect y="3072" width="512" height="512" fill="#edb"/>
  <rect x="3584" y="2560" width="512" height="512" fill="#edb"/>
  <rect x="3072" y="2560" width="512" height="512" fill="#b86"/>
  <rect x="2560" y="2560" width="512" height="512" fill="#edb"/>
  <rect x="2048" y="2560" width="512" height="512" fill="#b86"/>
  <rect x="1536" y="2560" width="512" height="512" fill="#edb"/>
  <rect x="1024" y="2560" width="512" height="512" fill="#b86"/>
  <rect x="512" y="2560" width="512" height="512" fill="#edb"/>
  <rect y="2560" width="512" height="512" fill="#b86"/>
  <rect x="3584" y="2048" width="512" height="512" fill="#b86"/>
  <rect x="3072" y="2048" width="512" height="512" fill="#edb"/>
  <rect x="2560" y="2048" width="512" height="512" fill="#b86"/>
  <rect x="2048" y="2048" width="512" height="512" fill="#edb"/>
  <rect x="1536" y="2048" width="512" height="512" fill="#b86"/>
  <rect x="1024" y="2048" width="512" height="512" fill="#edb"/>
  <rect x="512" y="2048" width="512" height="512" fill="#b86"/>
  <rect y="2048" width="512" height="512" fill="#edb"/>
  <rect x="3584" y="1536" width="512" height="512" fill="#edb"/>
  <rect x="3072" y="1536" width="512" height="512" fill="#b86"/>
  <rect x="2560" y="1536" width="512" height="512" fill="#edb"/>
  <rect x="2048" y="1536" width="512" height="512" fill="#b86"/>
  <rect x="1536" y="1536" width="512" height="512" fill="#edb"/>
  <rect x="1024" y="1536" width="512" height="512" fill="#b86"/>
  <rect x="512" y="1536" width="512" height="512" fill="#edb"/>
  <rect y="1536" width="512" height="512" fill="#b86"/>
  <rect x="3584" y="1024" width="512" height="512" fill="#b86"/>
  <rect x="3072" y="1024" width="512" height="512" fill="#edb"/>
  <rect x="2560" y="1024" width="512" height="512" fill="#b86"/>
  <rect x="2048" y="1024" width="512" height="512" fill="#edb"/>
  <rect x="1536" y="1024" width="512" height="512" fill="#b86"/>
  <rect x="1024" y="1024" width="512" height="512" fill="#edb"/>
  <rect x="512" y="1024" width="512" height="512" fill="#b86"/>
  <rect y="1024" width="512" height="512" fill="#edb"/>
  <rect x="3584" y="512" width="512" height="512" fill="#edb"/>
  <rect x="3072" y="512" width="512" height="512" fill="#b86"/>
  <rect x="2560" y="512" width="512" height="512" fill="#edb"/>
  <rect x="2048" y="512" width="512" height="512" fill="#b86"/>
  <rect x="1536" y="512" width="512" height="512" fill="#edb"/>
  <rect x="1024" y="512" width="512" height="512" fill="#b86"/>
  <rect x="512" y="512" width="512" height="512" fill="#edb"/>
  <rect y="512" width="512" height="512" fill="#b86"/>
  <rect x="3584" width="512" height="512" fill="#b86"/>
  <rect x="3072" width="512" height="512" fill="#edb"/>
  <rect x="2560" width="512" height="512" fill="#b86"/>
  <rect x="2048" width="512" height="512" fill="#edb"/>
  <rect x="1536" width="512" height="512" fill="#b86"/>
  <rect x="1024" width="512" height="512" fill="#edb"/>
  <rect x="512" width="512" height="512" fill="#b86"/>
  <rect width="512" height="512" fill="#edb"/>
  <g>
    <path d="m4053.5 4028.1h0.6391l2.8306-2.1001q3.9263-3.0132 5.6611-6.209 1.9175-3.3784 1.9175-8.1264 0-5.4786-3.561-8.4917-3.3784-3.1045-8.7656-3.1045-5.2046 0-8.4917 3.0131-3.5611 3.1045-3.5611 7.9439 0 7.1221 9.77 14.609zm-4.2002 9.9526h-0.2739l-3.7437 2.7393q-6.8481 5.7524-6.8481 14.244 0 6.3003 4.5654 10.957 4.8393 4.748 11.14 4.748 5.6612 0 8.9483-3.2871 3.1958-3.1958 3.1958-8.8569 0-6.209-5.9351-11.779-2.6479-2.3741-5.5698-4.7481zm-7.8526-6.1176q-2.7392-1.9175-5.4785-5.1133-4.5654-5.1133-4.5654-12.144 0-8.8569 6.209-14.153 5.6611-4.8394 14.883-4.8394 8.6743 0 14.062 3.835 6.7568 4.7481 6.7568 12.601-0.1826 7.9438-6.6655 13.514-2.9219 2.5566-5.4785 3.9262l-3.0132 1.461h-0.1826l4.2002 3.1045q4.1089 3.0131 7.1221 6.3916 3.1958 3.561 4.5654 7.7612 1.187 3.1958 1.187 6.9395-0.1826 9.8613-7.0308 15.157-6.3916 4.8393-16.07 4.6567-9.1308 0-15.157-4.8393-7.1221-5.7525-7.1221-14.336 0-3.4697 1.3697-6.9394 2.5566-6.8482 11.596-12.144l2.9218-1.7348h-0.1826z" fill="#b86" aria-label="8"/>
    <path d="m4032.3 3486h42.732l-25.384 75.877h-7.7612l22.553-65.925v-0.3652h-22.188l-4.0176 0.2739q-5.2959 0.4566-7.5786 4.2915l-2.7392 4.2002-2.648-0.9131z" fill="#edb" aria-label="7"/>
    <path d="m4038.7 3012.2-0.8218 4.1089q-0.3652 1.8261-0.3652 5.2958 0 7.8526 1.8261 14.792 0.6392 3.1045 2.9219 6.483 3.3784 5.4785 9.4048 5.2959 11.87 0.3652 12.053-18.627 0-7.9439-2.9218-13.788-4.0176-7.6699-10.957-7.6699-4.8393 0-11.14 4.1089zm1.6435-5.8438q8.2178-4.3828 14.609-4.3828 6.9395 0 11.688 3.835 5.2959 4.3828 7.1221 10.318 1.2783 4.0176 1.2783 9.0396 0 15.705-10.5 23.192-2.5566 2.0088-5.5698 2.9218-3.835 1.2784-7.9439 1.2784-11.688 0-18.992-10.5-5.8438-8.4004-5.8438-21.549 0-16.527 8.4004-28.123 3.7436-5.3872 9.8613-9.8613 5.4785-4.1089 11.322-6.4829 6.3916-2.5567 13.422-2.9219l4.1088 0.091v2.5566l-3.1958 0.7305q-3.7436 1.0044-8.8569 3.0132-14.335 6.209-19.631 22.279z" fill="#b86" aria-label="6"/>
    <path d="m4045.4 2462.1h29.675l-4.9307 9.6787h-24.014v0.274l-4.4741 8.9482v-0.091l4.1088 0.7305q27.393 5.2959 27.575 29.036 0 12.874-9.3134 21.184-8.7657 7.9438-21.732 7.9438-5.022 0-8.7656-1.187-5.5698-1.7348-5.5698-6.0263 0-4.8394 5.3872-5.022 2.8305 0 8.7656 3.6523 3.9263 2.4654 7.8525 2.4654 6.4829 0 10.866-6.0264 3.7436-5.1133 3.7436-12.053 0-19.175-26.936-23.74l-6.209-0.9131z" fill="#edb" aria-label="5"/>
    <path d="m4030.5 2001.1v-0.274h25.475v-36.158h0.1826zm29.858-50.859h5.2046v50.585h11.414v8.7657h-11.414v18.262h-9.5874v-18.262h-29.675v-10.044z" fill="#b86" aria-label="4"/>
    <path d="m4032.7 1453.7q1.2783-3.835 3.4697-6.6655 2.2828-2.9219 5.1133-4.7481 2.8306-1.9175 5.9351-2.8306 3.1958-1.0043 6.3003-1.0043 3.8349 0 7.0307 1.187t5.3872 3.2871q2.2828 2.0088 3.4698 4.8393 1.2783 2.7393 1.2783 5.9351 0 4.4741-1.9175 7.9438-1.8262 3.3785-5.1133 6.1177l-2.5566 2.1001q3.8349 1.9175 6.4829 4.1089 2.6479 2.1914 4.2915 4.8394 1.6436 2.5566 2.374 5.5698 0.7305 3.0132 0.8218 6.5742 0 6.1177-2.374 11.14-2.374 4.9307-6.6655 8.4004-4.2002 3.4698-9.9527 5.3872-5.7524 1.9175-12.509 1.9175-6.3003 0-9.2221-1.6435-2.9219-1.6436-2.9219-4.8394 0-0.7305 0.2739-1.5522 0.3653-0.8218 0.9131-1.5523 0.6392-0.7304 1.4609-1.187 0.9131-0.5478 2.1001-0.5478 0.6392 0 1.5523 0.2739 0.9131 0.1826 1.8262 0.5478 1.0044 0.3653 1.8261 0.7305 0.9131 0.3652 1.461 0.6392 2.5566 1.2783 3.8349 1.9174 1.2783 0.6392 2.1001 0.9131 0.8218 0.274 1.461 0.274 0.7304 0 2.1001 0 2.7392 0 5.2046-1.0957 2.5566-1.0958 4.4741-3.1045 1.9175-2.1001 3.1045-4.9307 1.187-2.9219 1.2783-6.5742-0.1826-3.4698-1.2783-6.5742-1.0044-3.1958-3.6524-5.5699-2.5566-2.374-7.122-3.7436-4.4742-1.461-11.505-1.5523v-2.6479q9.6787-2.9219 14.427-7.2134 4.7481-4.3828 4.7481-10.044-0.091-2.3741-1.0957-4.4742-0.9131-2.1001-2.5567-3.6523-1.6435-1.5522-3.9262-2.4653-2.2828-0.9131-5.022-0.9131-2.4653 0-4.4741 0.4565-1.9175 0.3653-3.7437 1.6436-1.8262 1.187-3.6523 3.4697-1.7349 2.1914-3.9263 5.7524l-2.1914-1.0044z" fill="#edb" aria-label="3"/>
    <path d="m4059.1 996.31 5.2046-0.0913q3.4697-0.0913 5.2046-2.0088l2.1914-2.5566 1.7348-2.2827 1.6436 0.82178-6.1177 15.705h-44.467v-1.8262l9.9527-10.592 9.0395-9.5874q5.1133-5.9351 8.2178-10.044 3.835-5.1133 5.3872-9.3135 1.3696-4.3828 1.3696-10.135 0-7.4873-3.3784-11.961-4.2915-5.3872-11.048-5.3872-11.048 0-16.436 11.688l-0.9131 2.2827-2.1914-1.0044 0.5479-2.1001q2.2827-8.4004 8.0351-13.331 3.0132-2.7393 7.3047-4.4741 4.7481-1.8262 9.3135-1.8262 8.8569 0.18262 14.518 5.9351 5.6611 6.1177 5.6611 14.701 0 10.044-9.5874 22.188-5.3872 6.3916-10.318 11.505l-7.5786 7.8525-5.4785 5.4785v0.36524z" fill="#b86" aria-label="2"/>
    <path d="m4064.6 416.98v66.107q0 5.6611 2.7393 7.4873 2.0088 1.4609 7.7612 1.4609v2.5566h-30.497v-2.5566q5.9351 0 7.8526-1.5522 2.5566-2.374 2.5566-7.9438v-49.398q0-1.5522-0.5478-2.9219l-0.6392-1.0957q-0.5479-0.82178-1.9175-0.82178-1.0044 0-3.2871 0.91309l-4.0176 1.7349v-2.648z" fill="#edb" aria-label="1"/>
  </g>
  <g>
    <path d="m3629.7 52.223-5.6611 2.374q-11.962 5.1133-11.779 12.966 0 3.4697 1.9175 5.6611 2.0088 2.5566 5.2959 2.5566 4.5655 0 8.6743-3.561l1.5523-1.6436zm0-7.4873v-2.8306q0-2.6479-0.3652-4.6567-0.8218-6.6655-7.3047-6.8481-6.9395 0-7.1221 5.4785v3.6523q-0.1826 5.7524-5.3872 5.7524-2.648 0-3.9263-1.7349-1.187-1.6436-1.187-4.1089 0-3.6523 3.2871-7.1221 2.5567-2.6479 6.7569-4.1089 3.6523-1.2783 7.6699-1.2783 3.6523 0 7.122 1.0957 7.0308 2.2827 9.0396 8.1265 1.0044 2.9219 1.0044 5.4785v30.041q0.3652 4.1089 3.1958 4.1089 1.8262 0 4.6567-1.7349v3.4697l-0.9131 1.0044q-2.4653 2.2827-4.5654 3.1958-2.1914 1.0044-4.4741 1.0044-5.3872 0.18262-6.9395-5.4785l-0.5478-2.374-2.7393 2.374q-6.8481 5.4785-13.057 5.4785-5.5698 0-8.7656-3.3784-3.2871-3.2871-3.2871-8.6743 0-4.2002 1.8261-7.2134 2.0088-3.1958 5.2959-5.6611 5.2046-3.7437 14.336-7.396l6.3916-2.5566z" fill="#edb" aria-label="a"/>
    <path d="m3104.4 74.959 0.7305 1.0957q3.1958 3.9263 8.8569 3.9263 5.7525 0 9.5874-4.1089 2.374-2.5566 3.3784-5.6611 1.8262-5.5698 1.8262-12.327 0-8.4917-2.8306-14.792-3.8349-8.4917-11.048-8.4917-7.8525 0.36523-9.9526 7.4873-0.5479 1.6436-0.5479 4.2915zm2.7393-41.819q5.2959-5.4785 12.601-5.4785 3.3784 0 6.5742 1.3696 3.1958 1.4609 5.5698 4.0176 3.6523 3.7437 5.2959 8.4004 2.1001 6.3003 2.1001 12.144-0.1826 9.6787-4.2915 16.527-4.9307 8.2178-12.327 11.322-4.748 2.0088-9.6787 2.0088-4.4741 0-9.2221-1.2783-4.2915-1.0957-6.3916-2.8306l-2.648-2.2827v-58.803l-0.091-2.374q-0.4565-3.835-5.3872-4.0176l-2.374 0.09131v-2.648l17.531-5.2046v32.323z" fill="#b86" aria-label="b"/>
    <path d="m2623.4 65.554-1.1871 2.5566q-2.2827 4.2002-5.4785 8.0352-3.8349 4.2915-8.0351 5.9351-3.4698 1.4609-7.9439 1.4609-5.3872 0-9.1308-2.0088-4.0176-2.1914-6.4829-5.6611-3.0132-4.2915-4.2916-9.77-1.0957-4.6567-1.0957-9.6787 0.091-13.422 6.483-21.366 5.5698-7.0308 16.253-7.396 6.209 0 11.048 2.7393 6.3916 3.561 6.3916 9.0396-0.1826 4.8394-5.1133 4.8394-5.1132 0-6.2089-6.7568-0.9131-3.561-2.1001-4.748-1.5523-1.5522-4.8394-1.5522-6.6655 0-10.5 6.7568-2.6479 4.748-2.6479 13.057 0 5.4785 1.0044 9.6787 2.7392 13.24 14.975 13.24 8.9482 0 15.157-7.396l1.6436-2.1914z" fill="#edb" aria-label="c"/>
    <path d="m2099 71.854v-26.388q0-3.7437-0.9131-6.9395-0.9131-2.7393-3.9263-5.2046-2.7393-2.1914-6.1177-2.1914-5.1133 0-8.2177 3.835-2.2828 2.2827-3.3785 5.8438-1.8261 5.1133-1.8261 11.596 0 6.8481 2.1001 12.783 3.7436 11.048 13.148 11.322 5.9351-0.09131 9.1309-4.6567zm0 5.4785-1.9175 1.7349q-5.6612 4.3828-12.509 4.3828-7.5786 0-13.422-6.1177-3.561-3.4697-4.8393-7.4873-2.1914-5.4785-2.1914-12.053 0-11.322 5.935-20.088 7.0308-10.135 17.531-10.135 5.8437 0 10.226 3.3784l1.1871 1.0044v-13.788l-0.091-2.374q-0.4565-3.7437-5.2958-3.9263h-2.4654v-2.5566l17.44-5.2959v66.016q0 3.9263 1.187 4.748l0.8217 0.54785q0.9131 0.45654 2.9219 0.45654l2.9219-0.18262v2.6479l-17.44 5.2046z" fill="#b86" aria-label="d"/>
    <path d="m1587.2 45.192-0.274-2.4653q-1.187-7.5786-5.2046-10.044-2.374-1.4609-4.748-1.4609-4.8394 0-7.8525 4.2002-3.0132 4.2002-3.4698 8.4004l-0.2739 1.3696zm13.97 20.453-1.187 2.5566q-8.0352 15.34-22.005 15.34-10.318 0-16.344-8.4004-5.022-7.0308-5.022-18.353 0-6.9395 2.1914-13.514 2.2827-7.0308 7.4873-11.231 5.4785-4.2915 12.601-4.2915 8.9482 0.18262 14.518 5.9351 5.3872 5.5698 5.9351 14.701l0.091 1.187h-33.967l-0.091 1.6436q0 6.5742 1.3696 10.957 3.3785 11.779 14.975 11.87 9.3135 0 15.614-7.4873l1.7349-2.1914z" fill="#edb" aria-label="e"/>
    <path d="m1056.5 30.4 0.2739-5.2046q0.4566-8.4004 5.3872-14.153 5.022-5.7524 13.696-5.9351 11.779 0.18262 12.053 7.396 0 4.8394-4.748 4.8394-3.1045 0-5.6611-4.6567-2.3741-3.9263-5.2959-4.1089-5.8438 0-5.8438 8.583l-0.1826 3.7437-0.091 3.6523v5.8438h13.148v4.3828h-13.148v33.784q0 5.022 0.8218 7.8525 0.8218 3.561 6.3916 3.6523l2.374 0.09131v2.5566h-27.027v-2.5566q5.3872 0 6.9394-3.3784 0.9131-1.9175 0.9131-8.2178v-33.784h-8.6743v-4.3828z" fill="#b86" aria-label="f"/>
    <path d="m545.56 41.905q0 5.8438 1.8262 11.414 2.5566 8.1265 8.9482 8.1265 8.4004-0.18262 8.4004-11.048 0-6.3003-2.648-11.961-3.3784-7.5786-8.6743-7.5786-8.0352 0.36524-7.8525 11.048zm-0.27392 39.628-2.8306 3.1045q-3.0132 3.2871-3.0132 6.209 0 8.1265 17.349 8.1265 6.0264 0 11.961-2.0088 8.2178-2.8306 8.2178-8.4004 0-5.1133-7.2134-5.4785l-16.801-0.73047-4.3828-0.45654zm35.976-46.293h-9.4048v0.18262l1.4609 4.8394q1.0044 3.6523 1.0044 6.3003 0 4.8394-2.7393 9.5874-2.648 4.748-7.3047 6.8481-4.1089 1.9175-7.9438 1.9175-2.5566 0-6.4829-0.82178l-2.8306 2.4653q-2.2827 2.2827-2.374 4.1089-0.18262 2.2827 4.1089 2.5566 1.6436 0.18262 3.4697 0.36523 1.8262 0.09131 3.7436 0.09131l9.4961 0.27393q14.975 0.82178 14.975 12.783-0.18262 8.6743-11.231 14.609-8.4917 4.5654-18.444 4.5654-6.9394 0-11.87-2.5566-7.3047-3.835-7.3047-9.3135 0-2.0088 2.7393-5.3872l2.2827-2.5566 5.3872-5.4785q-5.2046-2.0088-5.2046-5.7524 0-3.0132 3.6523-6.5742l3.835-3.3784 2.1001-1.8262q-5.8438-3.3784-7.8525-6.5742-2.5566-4.0176-2.5566-9.6787 0-8.583 5.4785-13.97 5.7524-5.4785 14.062-5.4785 5.3872 0 10.318 2.374l1.2783 0.54785v-0.09131q1.7349 0.63916 5.4785 0.63916h8.6743z" fill="#edb" aria-label="g"/>
    <path d="m17.199 80.163q4.748-0.09131 6.4829-2.8306 1.3696-2.1001 1.3696-7.2134v-50.859l-0.09131-2.374q-0.18262-3.6523-5.3872-4.0176l-2.374 0.09131v-2.648l17.44-5.2046v32.323l3.1045-3.0132q6.3003-5.7524 12.875-5.7524 9.77 0 12.418 8.8569 0.91309 2.7393 1.0957 6.209l0.18262 3.561v21.64q0 6.0264 0.91309 7.9438 1.5522 3.2871 6.9395 3.2871v2.5566h-25.292v-2.5566q5.4785-0.09131 6.7568-3.1958 1.0957-2.9219 1.0957-8.0352v-21.823q0-0.45654-0.45654-4.5654-1.2783-7.7612-8.2178-7.7612-4.2915 0.18262-8.0352 3.3784l-3.3784 3.4697v28.488q0 5.4785 1.187 7.2134 1.8262 2.4653 6.6655 2.8306v2.5566h-25.292z" fill="#b86" aria-label="h"/>
  </g>
</svg>
