<?xml version="1.0" encoding="UTF-8"?>
<svg version="1.1" viewBox="0 0 4096 4096" xmlns="http://www.w3.org/2000/svg">
  <title>Chess board – White perspective</title>
  <rect width="512" height="512" fill="#edb"/>
  <rect x="512" width="512" height="512" fill="#b86"/>
  <rect x="1024" width="512" height="512" fill="#edb"/>
  <rect x="1536" width="512" height="512" fill="#b86"/>
  <rect x="2048" width="512" height="512" fill="#edb"/>
  <rect x="2560" width="512" height="512" fill="#b86"/>
  <rect x="3072" width="512" height="512" fill="#edb"/>
  <rect x="3584" width="512" height="512" fill="#b86"/>
  <rect y="512" width="512" height="512" fill="#b86"/>
  <rect x="512" y="512" width="512" height="512" fill="#edb"/>
  <rect x="1024" y="512" width="512" height="512" fill="#b86"/>
  <rect x="1536" y="512" width="512" height="512" fill="#edb"/>
  <rect x="2048" y="512" width="512" height="512" fill="#b86"/>
  <rect x="2560" y="512" width="512" height="512" fill="#edb"/>
  <rect x="3072" y="512" width="512" height="512" fill="#b86"/>
  <rect x="3584" y="512" width="512" height="512" fill="#edb"/>
  <rect y="1024" width="512" height="512" fill="#edb"/>
  <rect x="512" y="1024" width="512" height="512" fill="#b86"/>
  <rect x="1024" y="1024" width="512" height="512" fill="#edb"/>
  <rect x="1536" y="1024" width="512" height="512" fill="#b86"/>
  <rect x="2048" y="1024" width="512" height="512" fill="#edb"/>
  <rect x="2560" y="1024" width="512" height="512" fill="#b86"/>
  <rect x="3072" y="1024" width="512" height="512" fill="#edb"/>
  <rect x="3584" y="1024" width="512" height="512" fill="#b86"/>
  <rect y="1536" width="512" height="512" fill="#b86"/>
  <rect x="512" y="1536" width="512" height="512" fill="#edb"/>
  <rect x="1024" y="1536" width="512" height="512" fill="#b86"/>
  <rect x="1536" y="1536" width="512" height="512" fill="#edb"/>
  <rect x="2048" y="1536" width="512" height="512" fill="#b86"/>
  <rect x="2560" y="1536" width="512" height="512" fill="#edb"/>
  <rect x="3072" y="1536" width="512" height="512" fill="#b86"/>
  <rect x="3584" y="1536" width="512" height="512" fill="#edb"/>
  <rect y="2048" width="512" height="512" fill="#edb"/>
  <rect x="512" y="2048" width="512" height="512" fill="#b86"/>
  <rect x="1024" y="2048" width="512" height="512" fill="#edb"/>
  <rect x="1536" y="2048" width="512" height="512" fill="#b86"/>
  <rect x="2048" y="2048" width="512" height="512" fill="#edb"/>
  <rect x="2560" y="2048" width="512" height="512" fill="#b86"/>
  <rect x="3072" y="2048" width="512" height="512" fill="#edb"/>
  <rect x="3584" y="2048" width="512" height="512" fill="#b86"/>
  <rect y="2560" width="512" height="512" fill="#b86"/>
  <rect x="512" y="2560" width="512" height="512" fill="#edb"/>
  <rect x="1024" y="2560" width="512" height="512" fill="#b86"/>
  <rect x="1536" y="2560" width="512" height="512" fill="#edb"/>
  <rect x="2048" y="2560" width="512" height="512" fill="#b86"/>
  <rect x="2560" y="2560" width="512" height="512" fill="#edb"/>
  <rect x="3072" y="2560" width="512" height="512" fill="#b86"/>
  <rect x="3584" y="2560" width="512" height="512" fill="#edb"/>
  <rect y="3072" width="512" height="512" fill="#edb"/>
  <rect x="512" y="3072" width="512" height="512" fill="#b86"/>
  <rect x="1024" y="3072" width="512" height="512" fill="#edb"/>
  <rect x="1536" y="3072" width="512" height="512" fill="#b86"/>
  <rect x="2048" y="3072" width="512" height="512" fill="#edb"/>
  <rect x="2560" y="3072" width="512" height="512" fill="#b86"/>
  <rect x="3072" y="3072" width="512" height="512" fill="#edb"/>
  <rect x="3584" y="3072" width="512" height="512" fill="#b86"/>
  <rect y="3584" width="512" height="512" fill="#b86"/>
  <rect x="512" y="3584" width="512" height="512" fill="#edb"/>
  <rect x="1024" y="3584" width="512" height="512" fill="#b86"/>
  <rect x="1536" y="3584" width="512" height="512" fill="#edb"/>
  <rect x="2048" y="3584" width="512" height="512" fill="#b86"/>
  <rect x="2560" y="3584" width="512" height="512" fill="#edb"/>
  <rect x="3072" y="3584" width="512" height="512" fill="#b86"/>
  <rect x="3584" y="3584" width="512" height="512" fill="#edb"/>
  <g>
    <path d="m44.761 53.367h0.63916l2.8306-2.1001q3.9263-3.0132 5.6611-6.209 1.9175-3.3784 1.9175-8.1265 0-5.4785-3.561-8.4917-3.3784-3.1045-8.7656-3.1045-5.2046 0-8.4917 3.0132-3.561 3.1045-3.561 7.9438 0 7.1221 9.77 14.609zm-4.2002 9.9526h-0.27393l-3.7437 2.7393q-6.8481 5.7524-6.8481 14.244 0 6.3003 4.5654 10.957 4.8394 4.748 11.14 4.748 5.6611 0 8.9482-3.2871 3.1958-3.1958 3.1958-8.8569 0-6.209-5.9351-11.779-2.648-2.374-5.5698-4.748zm-7.8525-6.1177q-2.7393-1.9175-5.4785-5.1133-4.5654-5.1133-4.5654-12.144 0-8.8569 6.209-14.153 5.6611-4.8394 14.883-4.8394 8.6743 0 14.062 3.835 6.7568 4.748 6.7568 12.601-0.18262 7.9438-6.6655 13.514-2.9219 2.5566-5.4785 3.9263l-3.0132 1.4609h-0.18262l4.2002 3.1045q4.1089 3.0132 7.1221 6.3916 3.1958 3.561 4.5654 7.7612 1.187 3.1958 1.187 6.9395-0.18262 9.8613-7.0308 15.157-6.3916 4.8394-16.07 4.6567-9.1309 0-15.157-4.8394-7.1221-5.7524-7.1221-14.335 0-3.4697 1.3696-6.9395 2.5566-6.8481 11.596-12.144l2.9219-1.7349h-0.18262z" fill="#b86" aria-label="8"/>
    <path d="m23.577 534.6h42.732l-25.384 75.877h-7.7612l22.553-65.925v-0.36523h-22.188l-4.0176 0.27392q-5.2959 0.45654-7.5786 4.2915l-2.7393 4.2002-2.6479-0.91309z" fill="#edb" aria-label="7"/>
    <path d="m29.969 1083-0.82178 4.1089q-0.36524 1.8262-0.36524 5.2959 0 7.8526 1.8262 14.792 0.63916 3.1045 2.9219 6.4829 3.3784 5.4785 9.4048 5.2959 11.87 0.3652 12.053-18.627 0-7.9439-2.9219-13.788-4.0176-7.67-10.957-7.67-4.8394 0-11.14 4.1089zm1.6436-5.8437q8.2178-4.3828 14.609-4.3828 6.9395 0 11.688 3.8349 5.2959 4.3828 7.1221 10.318 1.2783 4.0176 1.2783 9.0395 0 15.705-10.5 23.192-2.5566 2.0088-5.5698 2.9219-3.835 1.2783-7.9438 1.2783-11.688 0-18.992-10.5-5.8438-8.4004-5.8438-21.549 0-16.527 8.4004-28.123 3.7437-5.3872 9.8613-9.8614 5.4785-4.1089 11.322-6.4829 6.3916-2.5566 13.422-2.9219l4.1089 0.091v2.5566l-3.1958 0.7305q-3.7437 1.0044-8.8569 3.0132-14.335 6.2089-19.631 22.279z" fill="#b86" aria-label="6"/>
    <path d="m36.634 1556.3h29.675l-4.9307 9.6787h-24.014v0.2739l-4.4741 8.9483v-0.091l4.1089 0.7304q27.393 5.2959 27.575 29.036 0 12.874-9.3135 21.184-8.7656 7.9439-21.731 7.9439-5.022 0-8.7656-1.187-5.5698-1.7349-5.5698-6.0264 0-4.8393 5.3872-5.022 2.8306 0 8.7656 3.6524 3.9263 2.4653 7.8525 2.4653 6.4829 0 10.866-6.0263 3.7437-5.1133 3.7437-12.053 0-19.175-26.936-23.74l-6.209-0.9131z" fill="#edb" aria-label="5"/>
    <path d="m21.751 2117.6v-0.2739h25.475v-36.158h0.18262zm29.858-50.859h5.2046v50.585h11.414v8.7656h-11.414v18.262h-9.5874v-18.262h-29.675v-10.044z" fill="#b86" aria-label="4"/>
    <path d="m23.942 2593.5q1.2783-3.8349 3.4697-6.6655 2.2827-2.9219 5.1133-4.7481 2.8306-1.9174 5.9351-2.8305 3.1958-1.0044 6.3003-1.0044 3.835 0 7.0308 1.187t5.3872 3.2871q2.2827 2.0088 3.4697 4.8394 1.2783 2.7392 1.2783 5.935 0 4.4741-1.9175 7.9439-1.8262 3.3784-5.1133 6.1176l-2.5566 2.1001q3.835 1.9175 6.4829 4.1089 2.6479 2.1914 4.2915 4.8394 1.6436 2.5566 2.374 5.5698t0.82178 6.5742q0 6.1177-2.374 11.14-2.374 4.9306-6.6655 8.4004-4.2002 3.4697-9.9526 5.3872-5.7524 1.9174-12.509 1.9174-6.3003 0-9.2222-1.6435-2.9219-1.6436-2.9219-4.8394 0-0.7304 0.27393-1.5522 0.36524-0.8218 0.91309-1.5523 0.63916-0.7304 1.4609-1.187 0.91309-0.5478 2.1001-0.5478 0.63916 0 1.5522 0.2739 0.91309 0.1826 1.8262 0.5479 1.0044 0.3652 1.8262 0.7304 0.91309 0.3653 1.4609 0.6392 2.5566 1.2783 3.835 1.9175 1.2783 0.6391 2.1001 0.9131 0.82178 0.2739 1.4609 0.2739 0.73047 0 2.1001 0 2.7393 0 5.2046-1.0957 2.5566-1.0957 4.4741-3.1045 1.9175-2.1001 3.1045-4.9307 1.187-2.9219 1.2783-6.5742-0.18262-3.4697-1.2783-6.5742-1.0044-3.1958-3.6523-5.5698-2.5566-2.3741-7.1221-3.7437-4.4741-1.4609-11.505-1.5522v-2.648q9.6787-2.9219 14.427-7.2134 4.748-4.3828 4.748-10.044-0.09131-2.374-1.0957-4.4741-0.91309-2.1001-2.5566-3.6524-1.6436-1.5522-3.9263-2.4653t-5.022-0.9131q-2.4653 0-4.4741 0.4565-1.9175 0.3653-3.7437 1.6436-1.8262 1.187-3.6523 3.4697-1.7349 2.1914-3.9263 5.7525l-2.1914-1.0044z" fill="#edb" aria-label="3"/>
    <path d="m50.331 3158.4 5.2046-0.091q3.4697-0.091 5.2046-2.0088l2.1914-2.5566 1.7349-2.2828 1.6436 0.8218-6.1177 15.705h-44.467v-1.8262l9.9526-10.592 9.0396-9.5874q5.1133-5.935 8.2178-10.044 3.835-5.1133 5.3872-9.3135 1.3696-4.3828 1.3696-10.135 0-7.4873-3.3784-11.961-4.2915-5.3872-11.048-5.3872-11.048 0-16.436 11.688l-0.91309 2.2827-2.1914-1.0044 0.54785-2.1001q2.2827-8.4004 8.0352-13.331 3.0132-2.7393 7.3047-4.4741 4.748-1.8262 9.3135-1.8262 8.8569 0.1826 14.518 5.9351 5.6611 6.1176 5.6611 14.701 0 10.044-9.5874 22.188-5.3872 6.3916-10.318 11.505l-7.5786 7.8525-5.4785 5.4786v0.3652z" fill="#b86" aria-label="2"/>
    <path d="m55.809 3601.4v66.107q0 5.6611 2.7393 7.4873 2.0088 1.461 7.7612 1.461v2.5566h-30.497v-2.5566q5.9351 0 7.8525-1.5523 2.5566-2.374 2.5566-7.9438v-49.398q0-1.5522-0.54785-2.9219l-0.63916-1.0957q-0.54785-0.8217-1.9175-0.8217-1.0044 0-3.2871 0.913l-4.0176 1.7349v-2.6479z" fill="#edb" aria-label="1"/>
  </g>
  <g>
    <path d="m476.7 4038.6-5.6611 2.374q-11.961 5.1133-11.779 12.966 0 3.4698 1.9175 5.6612 2.0088 2.5566 5.2959 2.5566 4.5654 0 8.6743-3.561l1.5522-1.6436zm0-7.4873v-2.8306q0-2.6479-0.36523-4.6567-0.82178-6.6655-7.3047-6.8482-6.9395 0-7.1221 5.4786v3.6523q-0.18262 5.7524-5.3872 5.7524-2.648 0-3.9263-1.7348-1.187-1.6436-1.187-4.1089 0-3.6524 3.2871-7.1221 2.5566-2.6479 6.7568-4.1089 3.6524-1.2783 7.6699-1.2783 3.6523 0 7.1221 1.0957 7.0308 2.2827 9.0396 8.1265 1.0044 2.9219 1.0044 5.4785v30.04q0.36524 4.1089 3.1958 4.1089 1.8262 0 4.6567-1.7349v3.4698l-0.91308 1.0044q-2.4653 2.2827-4.5654 3.1958-2.1914 1.0044-4.4741 1.0044-5.3872 0.1826-6.9394-5.4786l-0.54785-2.374-2.7393 2.374q-6.8481 5.4786-13.057 5.4786-5.5698 0-8.7656-3.3785-3.2871-3.2871-3.2871-8.6743 0-4.2002 1.8262-7.2133 2.0088-3.1958 5.2959-5.6612 5.2046-3.7436 14.335-7.396l6.3916-2.5566z" fill="#edb" aria-label="a"/>
    <path d="m974.83 4061.3 0.73047 1.0957q3.1958 3.9263 8.8569 3.9263 5.7524 0 9.5874-4.1089 2.374-2.5566 3.3784-5.6611 1.8262-5.5698 1.8262-12.327 0-8.4917-2.8306-14.792-3.835-8.4917-11.048-8.4917-7.8525 0.3653-9.9526 7.4873-0.54786 1.6436-0.54786 4.2915zm2.7393-41.819q5.2959-5.4785 12.601-5.4785 3.3784 0 6.5742 1.3696 3.1958 1.4609 5.5698 4.0176 3.6523 3.7436 5.2959 8.4004 2.1001 6.3003 2.1001 12.144-0.1827 9.6787-4.2915 16.527-4.9307 8.2178-12.327 11.322-4.748 2.0088-9.6787 2.0088-4.4741 0-9.2222-1.2783-4.2915-1.0957-6.3916-2.8306l-2.648-2.2827v-58.803l-0.0913-2.374q-0.45654-3.835-5.3872-4.0176l-2.374 0.091v-2.6479l17.531-5.2046v32.323z" fill="#b86" aria-label="b"/>
    <path d="m1516.1 4051.9-1.187 2.5567q-2.2827 4.2002-5.4785 8.0351-3.835 4.2916-8.0351 5.9351-3.4698 1.4609-7.9439 1.4609-5.3872 0-9.1309-2.0087-4.0175-2.1915-6.4829-5.6612-3.0131-4.2915-4.2915-9.77-1.0957-4.6567-1.0957-9.6787 0.091-13.422 6.4829-21.366 5.5699-7.0308 16.253-7.396 6.209 0 11.048 2.7392 6.3916 3.5611 6.3916 9.0396-0.1826 4.8393-5.1133 4.8393-5.1133 0-6.209-6.7568-0.913-3.561-2.1001-4.748-1.5522-1.5523-4.8393-1.5523-6.6655 0-10.5 6.7569-2.6479 4.748-2.6479 13.057 0 5.4785 1.0043 9.6787 2.7393 13.24 14.975 13.24 8.9482 0 15.157-7.396l1.6435-2.1914z" fill="#edb" aria-label="c"/>
    <path d="m2014.1 4058.2v-26.388q0-3.7437-0.9131-6.9395-0.9131-2.7393-3.9262-5.2046-2.7393-2.1914-6.1177-2.1914-5.1133 0-8.2178 3.835-2.2827 2.2827-3.3784 5.8437-1.8262 5.1133-1.8262 11.596 0 6.8482 2.1001 12.783 3.7437 11.048 13.148 11.322 5.9351-0.091 9.1309-4.6568zm0 5.4786-1.9175 1.7348q-5.6611 4.3828-12.509 4.3828-7.5787 0-13.422-6.1176-3.561-3.4698-4.8394-7.4873-2.1914-5.4786-2.1914-12.053 0-11.322 5.9351-20.088 7.0307-10.135 17.531-10.135 5.8438 0 10.227 3.3784l1.187 1.0044v-13.788l-0.091-2.374q-0.4565-3.7437-5.2959-3.9263h-2.4653v-2.5566l17.44-5.2959v66.016q0 3.9262 1.187 4.748l0.8218 0.5479q0.9131 0.4565 2.9219 0.4565l2.9218-0.1826v2.6479l-17.44 5.2046z" fill="#b86" aria-label="d"/>
    <path d="m2525.7 4031.5-0.274-2.4653q-1.187-7.5786-5.2045-10.044-2.3741-1.461-4.7481-1.461-4.8393 0-7.8525 4.2002t-3.4698 8.4004l-0.2739 1.3696zm13.97 20.453-1.187 2.5566q-8.0352 15.34-22.005 15.34-10.318 0-16.344-8.4003-5.022-7.0308-5.022-18.353 0-6.9394 2.1914-13.514 2.2827-7.0308 7.4873-11.231 5.4785-4.2915 12.601-4.2915 8.9482 0.1826 14.518 5.9351 5.3872 5.5698 5.935 14.701l0.091 1.187h-33.967l-0.091 1.6436q0 6.5742 1.3696 10.957 3.3785 11.779 14.975 11.87 9.3134 0 15.614-7.4873l1.7349-2.1914z" fill="#edb" aria-label="e"/>
    <path d="m3017.4 4016.7 0.2739-5.2045q0.4565-8.4004 5.3872-14.153 5.022-5.7524 13.696-5.935 11.779 0.1826 12.053 7.396 0 4.8393-4.748 4.8393-3.1045 0-5.6612-4.6567-2.374-3.9263-5.2959-4.1089-5.8437 0-5.8437 8.583l-0.1826 3.7436-0.091 3.6524v5.8437h13.148v4.3829h-13.148v33.784q0 5.022 0.8217 7.8526 0.8218 3.561 6.3916 3.6523l2.3741 0.091v2.5567h-27.027v-2.5567q5.3872 0 6.9395-3.3784 0.9131-1.9175 0.9131-8.2178v-33.784h-8.6744v-4.3829z" fill="#b86" aria-label="f"/>
    <path d="m3528.8 4028.2q0 5.8438 1.8262 11.414 2.5566 8.1265 8.9482 8.1265 8.4004-0.1827 8.4004-11.048 0-6.3003-2.6479-11.961-3.3785-7.5786-8.6744-7.5786-8.0351 0.3652-7.8525 11.048zm-0.2739 39.628-2.8306 3.1044q-3.0132 3.2872-3.0132 6.209 0 8.1265 17.349 8.1265 6.0263 0 11.961-2.0088 8.2178-2.8306 8.2178-8.4004 0-5.1133-7.2134-5.4785l-16.801-0.7305-4.3828-0.4565zm35.976-46.294h-9.4048v0.1826l1.4609 4.8394q1.0044 3.6523 1.0044 6.3003 0 4.8393-2.7393 9.5874-2.6479 4.748-7.3046 6.8481-4.1089 1.9175-7.9439 1.9175-2.5566 0-6.4829-0.8218l-2.8306 2.4653q-2.2827 2.2828-2.374 4.1089-0.1826 2.2827 4.1089 2.5567 1.6436 0.1826 3.4697 0.3652 1.8262 0.091 3.7437 0.091l9.4961 0.2739q14.975 0.8218 14.975 12.783-0.1826 8.6744-11.231 14.609-8.4917 4.5654-18.444 4.5654-6.9395 0-11.87-2.5566-7.3047-3.835-7.3047-9.3135 0-2.0088 2.7392-5.3872l2.2828-2.5566 5.3872-5.4785q-5.2046-2.0088-5.2046-5.7525 0-3.0132 3.6523-6.5742l3.835-3.3784 2.1001-1.8262q-5.8438-3.3784-7.8526-6.5742-2.5566-4.0176-2.5566-9.6787 0-8.583 5.4785-13.97 5.7524-5.4785 14.062-5.4785 5.3872 0 10.318 2.374l1.2783 0.5478v-0.091q1.7349 0.6392 5.4785 0.6392h8.6744z" fill="#edb" aria-label="g"/>
    <path d="m4023.8 4066.5q4.748-0.091 6.4829-2.8305 1.3696-2.1001 1.3696-7.2134v-50.859l-0.091-2.374q-0.1826-3.6524-5.3872-4.0176l-2.374 0.091v-2.6479l17.44-5.2046v32.323l3.1045-3.0132q6.3003-5.7524 12.874-5.7524 9.7701 0 12.418 8.8569 0.9131 2.7393 1.0957 6.209l0.1826 3.561v21.64q0 6.0263 0.9131 7.9438 1.5523 3.2871 6.9395 3.2871v2.5567h-25.292v-2.5567q5.4785-0.091 6.7568-3.1958 1.0957-2.9219 1.0957-8.0351v-21.823q0-0.4565-0.4565-4.5654-1.2783-7.7612-8.2178-7.7612-4.2915 0.1826-8.0351 3.3784l-3.3785 3.4697v28.488q0 5.4785 1.187 7.2134 1.8262 2.4653 6.6656 2.8305v2.5567h-25.292z" fill="#b86" aria-label="h"/>
  </g>
</svg>
