<?xml version="1.0" encoding="UTF-8"?>
<svg version="1.1" viewBox="0 0 4096 4096" xmlns="http://www.w3.org/2000/svg">
  <title>Chess White Bishop</title>

  <path d="m2048 3456.4q-30.762 125.24-74.707 173.58t-116.46 101.07q-79.102 54.932-186.77 92.285-107.67 39.551-239.5 19.775l-617.43-85.693q-37.354-4.3945-68.115 0-28.564 4.3946-54.932 4.3946-46.143 0-118.65 19.775-70.312 21.973-109.86 61.523l-213.13-349.37q39.551-43.945 70.312-61.524t72.51-37.354q127.44-59.326 272.46-72.51 61.523-4.3945 120.85-2.1972 59.326 2.1972 123.05-4.3946 118.65 19.775 237.3 37.354 120.85 15.381 241.7 32.959 131.84 0 177.98-26.367 24.17-13.184 76.904-48.34t105.47-103.27q-116.46-13.184-237.3-43.945-120.85-32.959-213.13-68.115l228.52-566.89q-171.39-98.877-239.5-158.2-68.115-61.523-107.67-140.62-57.129-101.07-74.707-195.56-15.381-94.482-13.184-169.19 2.1973-131.84 61.523-290.04 61.524-160.4 228.52-285.64 138.43-105.47 270.26-217.53 131.84-112.06 261.47-261.47-162.6-83.496-162.6-265.87 0-123.05 85.693-210.94 87.891-87.891 213.13-87.891 123.05 0 210.94 87.891 87.891 87.891 87.891 210.94 0 180.18-162.6 265.87 127.44 149.41 257.08 261.47 131.84 112.06 274.66 217.53 164.79 125.24 224.12 285.64 59.326 158.2 63.721 290.04 0 74.707-15.381 169.19-15.381 94.482-70.312 195.56-43.945 79.102-112.06 140.62-65.918 59.326-235.11 158.2l228.52 566.89q-96.68 35.156-217.53 68.115-120.85 30.762-232.91 43.945 50.537 68.115 103.27 103.27 52.734 35.156 79.102 48.34 46.143 26.367 177.98 26.367 118.65-17.578 237.3-32.959 120.85-17.578 241.7-37.354 59.326 6.5918 118.65 4.3946 61.523-2.1973 125.24 2.1972 140.62 13.184 272.46 72.51 39.551 19.775 70.312 37.354 32.959 17.578 72.51 61.524l-215.33 349.37q-39.551-39.551-112.06-61.523-70.312-19.775-114.26-19.775-28.564 0-59.326-4.3946-28.564-4.3945-65.918 0l-615.23 85.693q-131.84 19.775-246.09-17.578-112.06-37.354-184.57-98.877-72.51-59.326-116.46-103.27-41.748-41.748-70.312-166.99z"/>
  <path d="m1968.9 3208.1h-70.312q-123.05 197.75-235.11 248.29-52.734 26.367-116.46 48.34-63.721 21.973-147.22 21.973-15.381 0-235.11-35.156-105.47-15.381-166.99-32.959t-96.68-21.973q-125.24-15.381-292.24 13.184-101.07 17.578-188.96 63.721l105.47 171.39q26.367-26.367 68.115-35.156 43.945-6.5918 79.102-15.381 92.285-15.381 175.78-4.3946 28.564 6.5918 112.06 15.381 83.496 10.986 221.92 32.959 164.8 24.17 224.12 24.17 230.71 0 353.76-87.891 74.707-57.129 140.62-160.4 68.115-101.07 68.115-246.09z" fill="#fff"/>
  <path d="m2048 2379.7q213.13 0 408.69 32.959 215.33-76.904 312.01-239.5 83.496-140.62 83.496-309.81 0-101.07-50.537-221.92-50.537-123.05-164.79-221.92-129.64-107.67-283.45-235.11-153.81-129.64-305.42-301.03-153.81 171.39-307.62 301.03-153.81 127.44-281.25 235.11-116.46 98.877-166.99 221.92-48.34 120.85-48.34 221.92 0 169.19 81.299 309.81 94.482 162.6 314.21 239.5 193.36-32.959 408.69-32.959z" fill="#fff"/>
  <path d="m2048 2779.6q257.08 0 494.38 50.537l-105.47-270.26q-193.36-30.762-388.92-30.762-199.95 0-391.11 30.762l-105.47 270.26q235.11-50.537 496.58-50.537z" fill="#fff"/>
  <path d="m2048 694.4q149.41 0 149.41-149.41t-149.41-149.41-149.41 149.41 149.41 149.41z" fill="#fff"/>
  <path d="m2048 3087.2q149.41 0 290.04-24.17 142.82-26.367 274.66-61.523-257.08-68.115-564.7-68.115-312.01 0-564.7 68.115 127.44 35.156 270.26 61.523 142.82 24.17 294.43 24.17z" fill="#fff"/>
  <path d="m1968.9 1817.2-182.37-2.1973q-74.707 0-74.707-74.707t74.707-74.707h182.37v-188.96q0-76.904 79.102-76.904 76.904 0 76.904 76.904v188.96h188.96q72.51 0 72.51 74.707t-72.51 74.707h-188.96v180.18q0 79.102-76.904 79.102-79.102 0-79.102-79.102z"/>
  <path d="m2124.9 3208.1q0 145.02 65.918 246.09 68.115 103.27 145.02 160.4 120.85 87.891 353.76 87.891 57.129 0 224.12-24.17 136.23-21.973 219.73-32.959 83.496-8.7891 112.06-15.381 83.496-10.986 175.78 4.3946 35.156 8.789 76.904 15.381 43.945 8.7891 72.51 35.156l105.47-171.39q-90.088-46.143-191.16-63.721-166.99-28.564-292.24-13.184-37.354 4.3945-98.877 21.973-59.326 17.578-162.6 32.959-221.92 35.156-235.11 35.156-85.693 0-149.41-21.973-63.721-21.973-114.26-48.34-116.46-52.734-237.3-248.29z" fill="#fff"/>
</svg>
