<?xml version="1.0" encoding="UTF-8"?>
<svg version="1.1" viewBox="0 0 4096 4096" xmlns="http://www.w3.org/2000/svg">
  <title>Chess White King</title>

  <path d="m2125.3 872.45h-156.01v-287.84h-182.37q-74.707 0-74.707-72.51v-2.1973q0-72.51 74.707-72.51h182.37v-186.77q0-76.904 79.102-76.904 76.904 0 76.904 76.904v186.77h188.96q72.51 0 72.51 72.51v2.1973q0 72.51-72.51 72.51l-186.77 2.1973z"/>
  <path d="m815.81 3151-72.51-410.89q-2.1973 0-6.5918-8.789-10.986-15.381-63.721-39.551-50.537-26.367-118.65-87.891-96.68-81.299-151.61-131.84-52.734-50.537-96.68-109.86-134.03-184.57-149.41-446.04-21.973-252.69 204.35-503.17 228.52-250.49 617.43-235.11 145.02 8.789 340.58 70.312 63.721 26.367 129.64 52.734 68.115 24.17 134.03 50.537 35.156 17.578 61.523 35.156-10.986-46.143-10.986-92.285 0-171.39 120.85-292.24 123.05-120.85 294.43-123.05 171.39 0 292.24 123.05 120.85 120.85 120.85 290.04 0 35.156-8.789 92.285 30.762-19.775 59.326-32.959 101.07-43.945 265.87-103.27 188.96-63.721 340.58-72.51 388.92-17.578 615.23 235.11 221.92 250.49 206.54 503.17-17.578 261.47-151.61 446.04-43.945 59.326-98.877 112.06-54.932 50.537-147.22 129.64-72.51 61.523-123.05 87.891-50.537 24.17-59.326 39.551-2.1973 4.3945-4.3946 6.5918-2.1972 2.1973-2.1972 4.3945l-70.312 413.09 145.02 542.72q-109.86 98.877-492.19 162.6t-883.3 63.721q-509.77 0-896.48-68.115-386.72-65.918-485.6-166.99z"/>
  <path d="m2123.2 2423.8q377.93 4.3945 692.14 46.143 314.21 39.551 492.19 101.07 83.496-65.918 182.37-145.02 98.877-81.299 164.79-164.8 105.47-134.03 105.47-353.76 0-197.75-94.482-329.59-169.19-246.09-514.16-246.09-206.54 0-424.07 85.693-191.16 76.904-290.04 171.39-184.57 184.57-272.46 474.61-30.762 103.27-37.354 188.96-4.3946 83.496-4.3946 171.39z" fill="#fff"/>
  <path d="m2048.4 2015.1q15.381-61.524 26.367-85.693 21.973-85.693 50.537-145.02 13.184-37.354 37.354-85.693 26.367-50.537 54.932-114.26 17.578-37.354 37.354-90.088 19.775-54.932 39.551-107.67 17.578-43.945 17.578-94.482 0-107.67-76.904-182.37-76.904-76.904-186.77-76.904-261.47 0-261.47 261.47 0 50.537 17.578 94.482 48.34 142.82 74.707 197.75 28.564 63.721 52.734 114.26 24.17 48.34 41.748 85.693 28.564 72.51 48.34 145.02 4.3945 13.184 26.367 83.496z" fill="#fff"/>
  <path d="m1971.5 2423.8q-2.1973-85.693-6.5918-169.19-4.3945-85.693-32.959-188.96-90.088-294.43-272.46-474.61-94.482-92.285-290.04-171.39-224.12-87.891-424.07-87.891-347.17 0-514.16 248.29-94.482 131.84-94.482 329.59 0 215.33 105.47 353.76 63.721 81.299 162.6 162.6 98.877 81.299 184.57 147.22 384.52-138.43 1182.1-149.41z" fill="#fff"/>
  <path d="m3248.1 3614.6q-424.07-171.39-1190.9-171.39-795.41 0-1204.1 175.78 386.72 153.81 1197.5 153.81 386.72 0 705.32-43.945 318.6-41.748 492.19-114.26z" fill="#fff"/>
  <path d="m3191 3408.1-65.918-252.69q-435.06-96.68-1076.7-96.68-639.4 0-1074.5 96.68l-70.312 254.88q419.68-123.05 1147-123.05 722.9 0 1140.4 120.85z" fill="#fff"/>
  <path d="m949.84 3017q417.48-105.47 1107.4-105.47 676.76 0 1092 101.07l54.932-323q-441.65-116.46-1155.8-116.46-718.51 0-1153.6 118.65z" fill="#fff"/>
</svg>
