<?xml version="1.0" encoding="UTF-8"?>
<svg version="1.1" viewBox="0 0 4096 4096" xmlns="http://www.w3.org/2000/svg">
  <title>Chess White Knight</title>

  <path d="m2166.6 613.2q344.97 21.973 639.4 177.98 294.43 156.01 500.98 399.9 145.02 171.39 272.46 413.09 129.64 241.7 206.54 511.96 87.891 314.21 109.86 661.38 24.17 344.97 24.17 639.4v479t-342.77 0q-340.58 0-885.5 0h-1474.4q-19.775 0-19.775-107.67 2.1972-107.67 15.381-173.58 8.7891-52.734 41.748-149.41t109.86-235.11q35.156-70.312 166.99-204.35 131.84-136.23 303.22-314.21 98.877-101.07 153.81-254.88 57.129-153.81 48.34-279.05-81.299 65.918-177.98 107.67-465.82 166.99-674.56 483.4-15.381 19.775-98.877 177.98-43.945 83.496-74.707 114.26-41.748 41.748-120.85 46.143-123.05 6.5918-191.16-118.65-92.285 26.367-164.79 21.973-123.05-46.143-177.98-98.877-112.06-112.06-147.22-224.12-32.959-112.06-32.959-241.7 0-184.57 228.52-487.79 268.07-349.37 285.64-531.74 0-79.102 15.381-177.98 13.184-68.115 54.932-131.84 28.564-43.945 37.354-59.326 10.986-17.578 37.354-50.537 19.775-26.367 32.959-39.551 13.184-15.381 32.959-39.551 24.17-28.564 61.523-65.918-116.46-320.8-94.482-661.38 437.26 156.01 733.89 489.99 72.51-248.29 285.64-402.1 175.78 123.05 279.05 325.2z"/>
  <path d="m3654.1 3739.9q-2.1972 0 4.3946-120.85 6.5918-118.65 6.5918-257.08 2.1972-274.66 0-566.89-2.1973-294.43-79.102-586.67-74.707-281.25-164.79-479-90.088-199.95-195.56-344.97-158.2-237.3-430.66-402.1-272.46-164.79-569.09-215.33 19.775 107.67 17.578 210.94-4.3945 79.102-74.707 79.102-81.299 0-72.51-79.102 6.5918-290.04-206.54-496.58-166.99 175.78-180.18 408.69-4.3946 76.904-79.102 68.115-70.312-2.1973-70.312-81.299 0 0 4.3945-17.578-90.088 28.564-188.96 81.299-63.721 43.945-103.27-21.973-39.551-65.918 35.156-103.27 94.482-48.34 142.82-72.51-188.96-193.36-430.66-312.01 26.367 305.42 166.99 577.88 37.354 57.129-17.578 101.07-61.523 48.34-103.27-15.381-15.381-21.973-43.945-79.102-46.143 46.143-61.523 68.115-15.381 19.775-54.932 87.891-37.354 68.115-54.932 112.06-19.775 54.932-17.578 90.088 4.3945 32.959 6.5918 74.707-19.775 129.64-90.088 243.9-68.115 114.26-175.78 279.05-103.27 158.2-158.2 237.3-54.932 79.102-83.496 202.15-19.775 74.707 0 182.37 19.775 105.47 85.693 164.8 101.07 103.27 195.56 94.482 30.762 0 81.299-24.17 52.734-24.17 81.299-92.285 57.129-125.24 94.482-125.24 54.932 0 59.326 61.523 0 13.184-35.156 109.86-19.775 43.945-52.734 92.285-41.748 57.129-37.354 48.34 35.156 125.24 116.46 43.945 24.17-24.17 54.932-90.088t96.68-177.98q76.904-129.64 164.8-210.94 87.891-81.299 156.01-131.84 39.551-28.564 96.68-65.918t153.81-76.904q76.904-30.762 169.19-74.707 94.482-46.142 166.99-116.46 101.07-98.877 156.01-243.9 28.564-81.299 21.973-199.95-19.775-74.707 74.707-74.707 70.312 0 79.102 72.51 0 248.29-140.62 452.64 46.143 140.62 24.17 307.62-19.775 134.03-94.482 287.84-72.51 151.61-296.63 338.38-454.83 377.93-430.66 777.83 0 0 373.54 0 375.73 0 705.32 0z" fill="#fff"/>
  <path d="m674.71 2404q-63.721 39.551-76.904 105.47 2.1973 72.51-68.115 79.102-76.904 8.7891-79.102-65.918 8.7891-145.02 129.64-230.71 57.129-46.142 105.47 8.7891 48.34 59.326-10.986 103.27z"/>
  <path d="m1327.3 1355.9q28.564 43.945 21.973 92.285-21.973 140.62-156.01 118.65-39.551-6.5918-63.721-26.367-8.789 10.986-26.367 48.34-24.17 70.312-92.285 48.34-68.115-26.367-52.734-98.877 98.877-252.69 358.15-347.17 74.707-21.973 98.877 43.945 26.367 70.312-39.551 96.68-13.184 6.5918-24.17 13.184-10.986 4.3945-24.17 10.986z"/>
</svg>
