<?xml version="1.0" encoding="UTF-8"?>
<svg version="1.1" viewBox="0 0 4096 4096" xmlns="http://www.w3.org/2000/svg">
  <title>Chess White Pawn</title>

  <path d="m2049.1 3846.4h-1186.5q-87.891-219.73-87.891-459.23 0-406.49 230.71-729.49t593.26-461.43q-156.01-72.51-254.88-217.53-96.68-147.22-96.68-331.79 0-230.71 153.81-399.9t377.93-195.56q-177.98-134.03-177.98-353.76 0-184.57 129.64-316.41 131.84-131.84 318.6-131.84 184.57 0 316.41 131.84t131.84 316.41q0 219.73-177.98 353.76 224.12 26.367 377.93 195.56 153.81 169.19 153.81 399.9 0 184.57-101.07 331.79-98.877 145.02-252.69 217.53 362.55 138.43 593.26 461.43t230.71 729.49q0 237.3-85.693 459.23z"/>
  <path d="m2049.1 3697h1078.9q46.143-158.2 46.143-309.81 0-342.77-191.16-621.83-188.96-279.05-487.79-410.89-145.02-10.986-145.02-158.2 0-116.46 147.22-171.39 204.35-142.82 204.35-377.93 0-169.19-114.26-296.63t-276.86-147.22q-131.84-10.986-131.84-149.41 0-61.523 48.34-114.26 118.65-92.285 118.65-241.7 0-123.05-87.891-210.94-87.891-87.891-208.74-87.891-125.24 0-213.13 87.891-85.693 87.891-85.693 210.94 0 147.22 118.65 241.7 48.34 48.34 48.34 114.26 0 138.43-129.64 149.41-164.79 19.775-279.05 147.22-112.06 127.44-112.06 296.63 0 235.11 204.35 377.93 147.22 57.129 147.22 171.39 0 147.22-147.22 158.2-298.83 131.84-487.79 410.89t-188.96 621.83q0 162.6 46.143 309.81z" fill="#fff"/>
</svg>
