<?xml version="1.0" encoding="UTF-8"?>
<svg version="1.1" viewBox="0 0 4096 4096" xmlns="http://www.w3.org/2000/svg">
  <title>Chess White Queen</title>

  <path d="m3781.6 1118.5q-125.24 0-213.13-85.693-87.891-87.891-87.891-213.13 0-123.05 87.891-210.94 87.891-90.088 213.13-90.088 123.05 0 210.94 90.088 87.891 87.891 87.891 210.94 0 125.24-87.891 213.13-87.891 85.693-210.94 85.693z"/>
  <path d="m314.25 1118.5q-125.24 0-213.13-85.693-85.693-87.891-85.693-213.13 0-123.05 85.693-210.94 87.891-90.088 213.13-90.088t213.13 90.088q87.891 87.891 87.891 210.94 0 125.24-87.891 213.13-87.891 85.693-213.13 85.693z"/>
  <path d="m2968.6 876.76q-125.24 0-213.13-85.693-85.693-87.891-85.693-213.13 0-123.05 85.693-210.94 87.891-87.891 213.13-87.891 125.24 0 213.13 87.891 87.891 87.891 87.891 210.94 0 125.24-87.891 213.13-87.891 85.693-213.13 85.693z"/>
  <path d="m1122.9 876.76q-125.24 0-213.13-85.693-87.891-87.891-87.891-213.13 0-123.05 87.891-210.94 87.891-87.891 213.13-87.891 123.05 0 210.94 87.891 87.891 87.891 87.891 210.94 0 125.24-87.891 213.13-87.891 85.693-210.94 85.693z"/>
  <path d="m3399.2 3706.9q-107.67 94.482-483.4 158.2t-865.72 63.721q-498.78 0-876.71-65.918t-476.81-164.8l138.43-527.34-61.523-344.97-193.36-336.18-186.77-1366.7 107.67-41.748 602.05 1015.1 13.184-1208.5 149.41-26.367 459.23 1215.1 246.09-1307.4h151.61l246.09 1303 454.83-1210.7 151.61 26.367 13.184 1208.5 604.25-1017.3 103.27 48.34-182.37 1360.1-195.56 336.18-61.523 349.37z"/>
  <path d="m2045.8 766.99q-125.24 0-213.13-87.891-85.693-87.891-85.693-213.13 0-123.05 85.693-210.94 87.891-87.891 213.13-87.891 123.05 0 210.94 87.891 90.088 87.891 90.088 210.94 0 125.24-90.088 213.13-87.891 87.891-210.94 87.891z"/>
  <path d="m3781.6 964.65q145.02 0 145.02-145.02 0-147.22-145.02-147.22-147.22 0-147.22 147.22 0 145.02 147.22 145.02z" fill="#fff"/>
  <path d="m314.25 964.65q147.22 0 147.22-145.02 0-147.22-147.22-147.22-145.02 0-145.02 147.22 0 145.02 145.02 145.02z" fill="#fff"/>
  <path d="m2968.6 722.95q147.22 0 147.22-145.02t-147.22-145.02q-145.02 0-145.02 145.02t145.02 145.02z" fill="#fff"/>
  <path d="m1122.9 722.95q145.02 0 145.02-145.02t-145.02-145.02q-147.22 0-147.22 145.02t147.22 145.02z" fill="#fff"/>
  <path d="m3221.3 3627.8q-402.1-166.99-1166.7-166.99-780.03 0-1179.9 171.39 384.52 151.61 1173.3 151.61 377.93 0 689.94-41.748 314.21-41.748 483.4-114.26z" fill="#fff"/>
  <path d="m3166.3 3425.6-65.918-248.29q-430.66-94.482-1054.7-94.482-617.43 0-1052.5 94.482l-68.115 250.49q408.69-123.05 1122.8-123.05 696.53 0 1118.4 120.85z" fill="#fff"/>
  <path d="m3034.5 2313.8q50.537 15.381 112.06 15.381 134.03 0 250.49-83.496l120.85-760.25z" fill="#fff"/>
  <path d="m1050.4 2302.8-472.41-815.19 120.85 742.68q125.24 87.891 243.9 87.891 46.143 0 107.67-15.381z" fill="#fff"/>
  <path d="m1608.5 2179.8-360.35-986.57v1004.2q6.5918-8.789 19.775-21.973 43.945-92.285 145.02-92.285 83.496 0 136.23 70.312z" fill="#fff"/>
  <path d="m2843.4 2210.5v-1017.3l-362.55 997.56q41.748-15.381 70.312-39.551 43.945-54.932 118.65-54.932 87.891 0 140.62 76.904 6.5918 8.7891 15.381 19.775 8.7891 8.789 17.578 17.578z" fill="#fff"/>
  <path d="m2234.8 2168.8-186.77-1074.5-186.77 1061.3q6.5918-4.3946 30.762-21.973 50.537-98.877 153.81-98.877 112.06 0 145.02 98.877 13.184 13.184 43.945 35.156z" fill="#fff"/>
  <path d="m3219.1 2693.9 142.82-252.69q-105.47 41.748-215.33 41.748-294.43 0-470.21-239.5-131.84 109.86-294.43 109.86-210.94 0-336.18-164.79-140.62 153.81-336.18 153.81-158.2 0-290.04-107.67-184.57 235.11-476.81 235.11-112.06 0-221.92-41.748l153.81 263.67q426.27-123.05 1171.1-123.05 758.06 0 1173.3 125.24z" fill="#fff"/>
  <path d="m3164.2 2825.8q-424.07-107.67-1109.6-107.67-703.12 0-1122.8 109.86l32.959 210.94q428.47-101.07 1089.8-101.07 656.98 0 1072.3 98.877z" fill="#fff"/>
  <path d="m2045.8 613.18q147.22 0 147.22-147.22 0-145.02-147.22-145.02-145.02 0-145.02 145.02 0 147.22 145.02 147.22z" fill="#fff"/>
</svg>
