<?xml version="1.0" encoding="UTF-8"?>
<svg version="1.1" viewBox="0 0 4096 4096" xmlns="http://www.w3.org/2000/svg">
  <title>Chess White Rook</title>

  <path d="m2350.1 549.46h373.54v-301.03h602.05v823.97l-487.79 375.73v1050.3l373.54 373.54v450.44h336.18v525.15h-2999.3v-525.15h336.18v-450.44l375.73-373.54v-1050.3l-487.79-375.73v-823.97h599.85v301.03h375.73v-301.03h602.05z"/>
  <path d="m2763.2 1298.9 279.05-226.32h-1986.3l281.25 226.32z" fill="#fff"/>
  <path d="m3004.9 2872.1-226.32-224.12h-1456.8l-230.71 224.12z" fill="#fff"/>
  <path d="m3174.1 923.07v-525.15h-301.03v301.03h-676.76v-301.03h-296.63v301.03h-674.56v-301.03h-301.03v525.15z" fill="#fff"/>
  <path d="m2686.3 1448.2h-1274.4v1050.3h1274.4z" fill="#fff"/>
  <path d="m3059.8 3023.6h-2021.5v298.83h2021.5z" fill="#fff"/>
  <path d="m3400.4 3471.9h-2702.6v226.32h2702.6z" fill="#fff"/>
</svg>
